<svg width="263" height="300" viewBox="0 0 263 300" fill="none" xmlns="http://www.w3.org/2000/svg">
<path d="M131.86 4.23C164.87 4.23 197.87 4.34 230.88 4.11C235.43 4.08 236.24 5.39 236.21 9.61C236.02 37.32 236.08 65.03 236.12 92.74C236.19 135.52 222.66 173.73 197.13 207.75C180.54 229.86 159.46 246.73 135 259.49C132.51 260.79 130.65 260.75 128.21 259.46C81.28 234.68 50.33 196.79 34.92 146.08C29.39 127.87 26.77 109.29 26.95 90.22C27.22 63.18 27.1 36.13 26.93 9.08C26.91 5.18 27.89 4.11 31.84 4.13C65.18 4.3 98.52 4.22 131.85 4.22L131.86 4.23Z" fill="#283A75"/>
<path d="M98.3402 270.81C114.04 274.28 129.75 273.93 145.46 272.59C151.06 272.11 156.6 270.9 162.19 270.25C165.03 269.92 165.93 269.25 164.6 266.24C161.98 260.34 162.69 258.65 168.31 255.49C172.35 253.22 176.47 251.09 180.53 248.85C187.91 244.77 188.12 244.81 192.82 251.79C202.73 241.04 212.61 230.32 222.49 219.61C223.5 218.51 224.5 217.4 225.5 216.3C227.62 213.97 230.99 211.91 231.55 209.26C232.2 206.2 227.76 204.94 225.82 202.61C223.34 199.64 223.42 197.06 225.42 194.08C228.25 189.86 232.14 186.76 236.17 183.84C238.26 182.33 239.29 181.24 237.73 178.35C235.45 174.12 237.38 169.28 241.15 167.87C245.16 166.36 249.08 168.52 250.58 173.28C252.41 179.09 254.76 184.36 260.63 187.4C263.81 189.05 261.57 191.16 260.1 192.49C256.05 196.16 251.86 199.68 247.57 203.07C245.4 204.79 244.68 205.9 246.86 208.46C255.11 218.14 255.17 218.38 246.88 228.25C233.3 244.41 217.69 258.61 202.62 273.32C201.07 274.84 198.99 276.11 197.5 274.03C194.12 269.31 190.92 271.75 187.27 273.42C183.64 275.09 181.2 276.36 183.25 281.33C184.98 285.51 181.07 287.5 177.76 288.78C168.92 292.18 159.79 294.63 150.4 295.82C129.76 298.43 109.39 297.01 89.3702 291.16C82.8502 289.26 81.4002 287.3 83.9002 281.26C85.7902 276.69 84.3002 274.56 80.3402 272.84C76.2202 271.05 72.7602 268.68 67.6502 271.76C63.8702 274.03 59.6502 270.78 56.6602 267.8C50.7902 261.95 45.0302 255.97 39.4502 249.84C30.8502 240.4 22.4402 230.8 13.9402 221.26C8.53018 215.19 8.76018 212.15 14.7602 206.72C20.1802 201.8 20.9102 203.06 14.3702 197.71C13.7302 197.19 13.0502 196.71 12.4102 196.18C7.28352 191.94 6.55685 187.18 10.2302 181.9C12.4402 178.73 14.0302 175.39 14.1702 171.38C14.3002 167.82 16.5102 165.55 19.8402 164.64C22.7502 163.85 25.5902 164.39 27.4502 166.95C29.6302 169.94 28.9202 173.13 26.6302 175.61C24.7502 177.64 25.1402 178.52 27.0502 180.21C30.7702 183.5 34.4102 186.96 37.5602 190.77C42.2002 196.38 42.1202 198.71 36.3602 203.1C32.2102 206.27 32.6702 208.25 35.7802 211.82C46.5902 224.2 58.1402 235.87 69.1902 248.02C71.0402 250.06 72.0702 249.42 73.1602 247.47C75.3102 243.64 78.0802 243.62 81.3502 246.06C86.2702 249.72 91.2002 253.36 96.1802 256.93C100.61 260.1 102.25 263.81 98.9002 268.76C98.5602 269.26 98.5602 269.99 98.3402 270.83V270.81Z" fill="#2B3A73"/>
<path d="M132.01 7.31003C163.86 7.31003 195.72 7.42003 227.57 7.19003C232.3 7.16003 233.24 8.61003 233.2 13C233 37.56 233 62.13 233.2 86.69C233.23 90.74 231.98 91.58 228.17 91.57C163.8 91.46 99.4299 91.45 35.0499 91.59C30.8099 91.59 29.8999 90.34 29.9299 86.31C30.1099 61.58 30.1199 36.85 29.9299 12.12C29.8999 8.08003 31.1299 7.20003 34.9499 7.22003C67.2999 7.36003 99.6499 7.30003 132.01 7.30003V7.31003Z" fill="#D5262C"/>
<path d="M133.88 120.6C159.22 120.68 179.99 141.46 180.05 166.79C180.11 192.46 158.99 213.33 133.07 213.22C107.93 213.11 87.1002 192.03 87.1402 166.73C87.1802 141.24 108.16 120.53 133.87 120.6H133.88Z" fill="#FDEA23"/>
<path d="M131.86 94.51C164.04 94.51 196.21 94.51 228.39 94.51C232.86 94.51 234.54 97.05 233.13 101.32C232.64 102.79 231.87 102.39 230.91 102.23C217.34 99.98 204.56 102.63 192.37 108.62C180.46 114.47 168.91 114.27 156.63 108.8C139.92 101.35 122.56 101.95 106.15 109.79C95.8898 114.69 86.4298 114.73 76.7698 109.54C65.5298 103.51 53.7298 100.47 40.9498 101.67C39.1398 101.84 37.3398 102.14 35.5498 102.46C29.7598 103.48 29.9998 103.49 29.8898 97.8C29.8298 94.51 31.4298 94.49 33.8298 94.5C52.2398 94.55 70.6498 94.53 89.0598 94.53C103.32 94.53 117.59 94.53 131.85 94.53L131.86 94.51Z" fill="#FFFFFD"/>
<path d="M95.1901 132.11C91.6701 137.6 87.9101 142.05 85.9901 147.55C85.3801 149.29 84.3001 149.05 82.8601 148.82C78.6801 148.14 74.9501 146.53 71.5801 144.02C61.6001 136.59 50.3401 134.42 38.2301 136.12C36.2201 136.4 35.3301 136.34 34.8301 134.05C31.7301 120.05 29.8301 121.47 44.3201 120.24C56.0201 119.24 67.4301 121.36 77.7001 127.57C82.9101 130.72 88.4901 132.37 95.1901 132.13V132.11Z" fill="#FEFEFD"/>
<path d="M171.96 132.1C179.63 132.5 185.29 129.76 191.04 126.62C202.74 120.24 215.45 118.95 228.54 120.72C229.18 120.81 230.26 120.97 230.34 121.29C231.38 125.64 229.09 129.55 228.53 133.71C228.2 136.12 226.33 135.63 224.72 135.58C211.78 135.16 199.88 138.37 189.19 145.81C188.12 146.56 186.86 147.02 185.73 147.7C183.24 149.21 181.59 148.96 180.53 145.89C178.86 141 175.54 137.03 171.97 132.1H171.96Z" fill="#FEFEFD"/>
<path d="M41.77 157.68C52.91 157.02 62.4 159.69 71.7 164.87C78.77 168.81 84.23 172.89 84.63 181.66C84.74 184.04 86.06 186.36 86.94 189.06C81.86 189.08 77.32 187.83 73.36 185.13C66.73 180.62 59.99 176.55 51.72 175.97C50.37 175.87 49.29 175.27 48.69 173.81C46.5 168.5 44.18 163.25 41.78 157.68H41.77Z" fill="#FEFEFD"/>
<path d="M107.09 242.8C124.1 232.36 146.74 231.83 158.21 241.5C150.37 247.4 142.02 252.34 133.41 256.88C132.08 257.58 131.02 257.54 129.74 256.84C122.06 252.67 114.38 248.49 107.09 242.8Z" fill="#FEFEFD"/>
<path d="M181.17 187.22C182.78 182.28 184.45 177.47 184.99 172.39C185.1 171.37 185.3 170.49 186.39 169.99C196.04 165.56 204.54 158.5 215.77 157.7C221.37 157.3 221.53 157.23 219.5 162.3C219.26 162.91 219.07 163.55 218.86 164.17C216.33 171.48 213.24 177.8 203.92 178.5C199.02 178.87 194.93 182.38 190.66 184.87C187.85 186.51 184.98 188.16 181.18 187.21L181.17 187.22Z" fill="#FEFEFC"/>
<path d="M121.26 216.84C110.62 221.34 100.23 224.84 89.2402 226.43C88.2202 226.58 87.2002 226.68 86.4202 225.94C79.8802 219.71 73.8002 213.08 68.4102 205.63C70.4902 204.75 71.7802 205.86 73.0802 206.37C82.1102 209.89 91.4002 210.62 100.89 209.13C102.58 208.87 103.99 208.63 105.53 209.77C110.08 213.14 115.32 215.09 121.26 216.83V216.84Z" fill="#FDFCFC"/>
<path d="M194.86 205.57C189.14 213.5 183.36 219.37 177.64 225.32C174.92 228.15 172.4 226.49 169.97 225.55C162.6 222.71 155.47 219.25 146.91 216.82C153.82 214.41 159.73 211.82 164.86 207.78C165.73 207.1 166.71 207.12 167.69 207.34C176.39 209.24 185.02 209.37 194.84 205.56L194.86 205.57Z" fill="#FDFDFC"/>
<path d="M131.18 294.93C117.32 294.56 103.47 292.61 89.7801 289.06C85.2901 287.89 84.6701 285.57 85.9101 281.85C86.3801 280.44 87.1601 279.15 87.6701 277.75C89.4301 272.97 92.1101 271.67 97.5301 272.88C122.4 278.45 147.19 276.49 171.69 270.34C175.41 269.41 176.52 270.47 177.83 273.42C182.85 284.71 182.84 284.93 170.99 288.71C158.13 292.82 144.89 294.61 131.17 294.93H131.18Z" fill="#D5262C"/>
<path d="M250.82 217.38C250.62 219.91 249.23 221.61 247.93 223.31C239.83 233.88 230.15 243 220.82 252.42C214.75 258.54 208.37 264.37 202.3 270.49C200.14 272.67 198.86 272.46 196.77 270.31C188.42 261.69 188.23 260.36 196.66 251.1C209.39 237.12 222.21 223.22 235.16 209.44C236.65 207.85 237.07 204.56 239.61 204.81C242.1 205.05 243.56 207.7 245.01 209.69C246.93 212.33 249.91 214.22 250.82 217.38Z" fill="#D5262C"/>
<path d="M74.9701 258.78C74.3101 263.52 71.6701 267.29 67.6901 269.43C63.8901 271.47 60.6801 268.54 58.1001 266.02C46.0101 254.22 35.0501 241.37 23.7701 228.81C20.5601 225.24 17.4201 221.61 14.2001 218.05C11.7601 215.35 11.8101 212.72 14.3701 210.21C16.1401 208.47 17.9401 206.74 19.9201 205.25C24.5901 201.73 26.1201 202.2 29.3301 206.87C35.3501 215.62 42.7901 223.21 49.9901 230.96C57.3101 238.84 64.9001 246.46 72.3601 254.22C73.5901 255.5 75.2601 256.57 74.9801 258.78H74.9701Z" fill="#D5272D"/>
<path d="M260.03 189.54C254.61 194.15 249.83 198.22 245.04 202.27C244.17 203 243.27 203.92 241.97 203.19C237.95 200.94 233.56 200.48 229.06 200.28C226.04 200.14 225.39 198.47 227 195.93C229.9 191.35 234.13 188.17 238.36 184.96C240.33 183.47 242.27 181.91 244.05 180.2C245.92 178.4 247.32 176.15 245.73 173.57C244.04 170.82 241.73 172.76 239.6 173.45C239.88 170.81 241.46 169.72 243.62 169.74C245.99 169.76 247.4 171.1 248.19 173.5C250.26 179.83 252.61 186.08 260.05 189.53L260.03 189.54Z" fill="#D5262C"/>
<path d="M25.4899 168.29C22.1499 168.69 19.0299 168.31 18.1299 171.52C17.2399 174.72 19.5799 176.8 21.6999 178.64C26.7099 182.97 31.7799 187.23 35.9599 192.39C37.1999 193.92 38.8199 195.71 37.9099 197.7C37.0799 199.5 34.7399 199.17 32.9899 199.23C29.8299 199.33 26.7099 199.53 23.7199 200.59C22.7699 200.93 21.9899 201.3 21.0299 200.45C17.1799 197.07 13.2999 193.73 9.34993 190.46C7.56993 188.99 7.94993 187.84 9.36993 186.4C13.5299 182.14 16.0799 177.15 16.8099 171.11C17.3199 166.84 20.4399 165.77 25.4999 168.29H25.4899Z" fill="#D5262C"/>
<path d="M73.6501 267.31C77.8901 262.42 77.9901 257.05 76.1701 251.38C75.7301 250.01 75.3601 248.22 76.6701 247.17C78.2401 245.92 79.4101 247.61 80.5001 248.4C85.7001 252.21 90.7901 256.17 95.9701 260.01C98.9101 262.18 99.4401 263.97 96.0001 266.37C93.0601 268.43 89.6001 269.93 87.5101 273.11C86.7401 274.28 85.9401 273.8 85.0701 273.09C81.8401 270.44 77.7901 269.31 73.6401 267.3L73.6501 267.31Z" fill="#D5262C"/>
<path d="M192.2 268.39C189.94 269.54 188.09 270.3 186.45 271.36C182.82 273.72 179.73 274.83 178.22 269.15C177.81 267.6 176.39 267.11 174.78 266.8C172.53 266.37 170.28 265.69 168.18 264.76C164.56 263.15 164.28 260.75 167.71 258.63C173.18 255.26 178.86 252.2 184.54 249.2C186.91 247.95 189.48 248.42 188.26 251.66C185.8 258.17 187.23 263.51 192.2 268.38V268.39Z" fill="#D5262C"/>
<path d="M22.1602 175.44C20.9002 174.99 20.2902 173.89 20.2602 172.83C20.2002 171.13 21.5902 170.8 22.9602 171C23.9202 171.14 25.0502 171.7 24.6802 172.86C24.3102 174.01 23.6402 175.22 22.1602 175.43V175.44Z" fill="#C32A35"/>
<path d="M230 203.56C232.52 202.88 234.33 202.55 235.72 203.92C236.28 204.47 235.64 205.58 234.93 205.95C232.69 207.11 232.02 204.9 230 203.56Z" fill="#C72A32"/>
<path d="M34.7998 201.55C33.3098 203.01 32.8398 205.06 30.5398 204.48C30.2698 204.41 29.9098 203.59 30.0198 203.25C30.7698 200.96 32.5898 201.44 34.7998 201.55Z" fill="#A92E42"/>
<path d="M244 176.2C243.62 177.34 243.14 178.64 241.62 178.77C240.86 178.83 240.72 177.94 240.78 177.33C240.92 175.92 241.67 174.84 243.13 174.68C243.92 174.59 244.02 175.41 244 176.2Z" fill="#C22A35"/>
<path d="M202.3 20.09C205.01 18.04 207.98 16.83 211.47 17.09C211.68 19.19 209.04 19.15 208.79 21.02C213.84 20.82 218.25 18.27 223.7 17.31C220.62 21.59 216.89 23.91 212.44 25.25C211.13 26.76 208.84 26.39 206.74 28.21C206.9 28.12 208.03 28.29 207.52 27.88C208.54 26.66 209.99 26.55 211.41 26.38C212.33 26.27 213.33 26.83 214.17 26.05C216 28.02 213.82 28.52 212.85 28.94C210.6 29.93 208.2 30.56 205.69 31.39C206.67 32.75 208.43 31.47 209.6 32.66C207.89 37.8 203.24 37.51 199.13 38.22C199.26 39.52 201.92 39.88 200.86 41.19C198.75 43.8 195.36 42.62 192.54 43.28C192.9 44.47 195.7 43.28 194.92 45.49C194.33 47.18 192.84 48.14 191.12 48.3C186.8 48.7 182.56 47.98 178.38 47.01C175.18 46.27 175.92 48.14 176.29 49.86C173.85 52.48 171.47 50.04 168.66 50.09C168.27 50.66 169.36 52.67 168.49 52.66C164.7 52.6 161.55 55.95 158.05 55.1C155.36 54.44 153.55 53.94 151.75 56.4C151.33 56.97 150.28 56.77 150.33 56.81C150.57 56.89 151.62 57.03 152.43 56.16C154.05 54.42 155.8 54.29 157.79 55.35C158.54 55.75 159.75 56.2 160.12 55.71C162.77 52.18 167.53 54.74 170.66 51.67C172.7 49.67 176.35 51.51 179.27 51.65C182.03 52.48 184.93 52.93 187.91 54.97C186.14 55.79 184.76 56.43 183.25 57.12C184.49 58.36 187.52 57.57 187.21 60.03C186.89 62.57 184.56 60.77 182.79 61.3C183.51 61.65 184.02 61.79 184.38 62.1C186.16 63.57 190.15 63.53 189.49 66.46C188.91 69.03 185.43 67.38 183.31 67.95C178.67 67.49 174.38 65.65 169.96 64.35C169.26 64.43 170.15 65.21 169.97 64.57C169.9 64.32 170.04 64.21 170.36 64.35C174.57 66.16 179.13 66.91 183.36 68.66C184.08 68.92 185.28 69.03 185.42 69.47C185.65 70.24 184.73 70.64 183.99 71C181.08 72.39 178.32 70.91 175.49 70.69C172.34 70.21 169.59 68.72 167.08 67.43C169.08 69.18 172.48 69.18 174.4 71.68C175.42 72.14 175.68 72.44 174.41 73.07C172.78 73.87 169.38 70.63 169.43 75.22C167.64 75.01 165.8 75.01 164.08 74.55C160.86 73.7 158.6 68.64 154.09 73.64C152.25 75.68 146.29 67.46 147.5 63.55C147.7 62.89 149.48 63.06 148.39 62.04C147.94 61.62 146.81 61.86 146 61.92C144.73 62 144.95 62.81 145.24 63.64C146.82 68.18 145.97 72.36 143.69 76.51C142 79.57 146.05 80.77 147.14 84.59C143.6 81.59 141.83 81.82 140.39 85.19C139.06 88.3 136.66 82.73 134.64 85.62C136.59 83.04 135.3 78.82 139.49 77.96C140.71 77.71 140.55 76.5 140.69 75.51C141.41 70.16 136.93 67.44 134.59 63.68C133.78 62.37 129.54 65.19 129.65 67.35C129.78 70 128.66 71.74 126.81 73.31C123.7 75.94 121.95 78.82 125.56 82.31C124.21 83.86 123.06 81.08 122.66 82.17C121.24 86.03 117.79 83.19 115.58 84.57C114.47 85.27 114.51 83.34 114.12 82.6C113.24 80.91 114.43 80.36 115.74 79.72C121.81 76.75 123.01 73.45 120.59 67.34C120.23 66.43 119.93 65.91 119 65.9C114.17 65.86 110.27 63.01 105.91 61.57C97.4202 58.77 87.8502 62.79 85.0702 70.29C78.7102 63.19 82.9502 52.52 93.6102 48.8C97.2102 48.62 100.65 47.92 103.58 45.61C108.47 44.45 113.25 42.9 118.43 44.32C120.36 44.85 122.63 44.83 124.69 44.08C127.26 44.18 129.74 43.96 131.2 41.42C136 33.05 144.23 30.49 152.86 29.14C159.97 28.02 166.78 26.24 173.14 22.93C178.96 19.9 185.26 18.62 191.59 17.43C196.42 16.52 201.28 15.78 206.49 12.48C205.36 16.21 202.91 17.4 201.25 19.19C199.37 22.33 196.09 23.69 193.23 25.62C189.91 27.86 184.84 27.4 183.12 32.19C182.9 32.79 181.62 32.19 181.09 32.92C187.31 27.2 195.58 24.96 202.32 20.12L202.3 20.09Z" fill="#FDEA23"/>
<path d="M53.8102 16.13C51.9502 14.9 50.0802 13.67 48.2202 12.43C71.4602 17.19 95.8302 16.92 116.72 30.01C121.43 32.96 125.25 36.66 128.46 41.58C124.82 43.28 121.15 42.6 117.67 43.12C109.04 44.57 100.66 48.24 91.6202 46.17C91.5902 43.46 94.5702 45.1 95.3802 43.32C92.7202 42.56 89.5602 43.66 87.1802 41.49C88.4402 39.32 91.6602 40.51 93.0002 38.17C88.6402 38.78 84.2702 39.9 79.9202 37.63C81.6602 34.99 85.1702 36 86.8302 33.57C82.1502 33.59 77.7302 35.72 73.0502 34.71C72.5502 32.19 75.3102 32.73 76.1602 31.21C72.1802 30.15 68.2102 33.12 64.0502 31.21C64.8402 28.75 67.3402 29 68.6502 27.74C70.0202 25.27 72.4802 25.17 74.7802 25.4C67.2402 23.4 59.8002 21.49 53.8002 16.13H53.8102Z" fill="#FDE923"/>
<path d="M179.26 51.65C172.82 51.94 166.61 53.15 160.94 56.41C159.62 57.17 158.43 56.62 157.17 56.12C156.09 55.69 155.04 54.57 153.75 56.16C151.21 59.28 148.92 57.61 146.1 55.14C149.42 55.45 153.41 58 152.61 51.69C154.19 52.47 155.2 52.98 156.23 53.46C156.98 53.81 157.99 54.58 158.47 54.34C161.42 52.88 164.01 50.56 167.84 52.13C168.22 52.29 166.46 49.52 167.01 47.8C170.13 48.39 172.73 51.33 176.26 49.88C177.26 50.47 178.25 51.06 179.25 51.66L179.26 51.65Z" fill="#D6492E"/>
<path d="M53.8101 16.13C60.8901 19.18 67.9701 22.23 75.3101 25.39C72.9301 26.23 70.8001 26.99 68.6701 27.74C68.3201 27.46 67.9601 27.18 67.6101 26.89C67.3601 23.57 64.9601 24.95 63.2501 24.92C61.4301 24.89 59.6001 26.55 57.8001 24.84C56.4701 24.31 55.1401 23.78 53.8101 23.24C55.1401 21.26 57.3001 22.08 59.0901 21.67C57.4201 20.86 55.3001 22.66 53.8101 20.77C53.7901 20.46 53.8101 20.16 53.8301 19.85C53.5501 19.05 53.6701 18.24 53.7901 17.43C53.8001 16.99 53.8101 16.55 53.8201 16.11L53.8101 16.13Z" fill="#D74E2E"/>
<path d="M202.3 20.09C198.61 23.73 194.33 26.42 189.51 28.32C187.73 29.03 185.64 28.89 184.87 31.83C184.26 34.16 181.22 33.09 179.69 32.9C185.7 26.91 194.55 24.79 201.23 19.14C201.59 19.45 201.94 19.76 202.3 20.07V20.09Z" fill="#D5452D"/>
<path d="M91.6401 46.17C100.48 46.45 108.95 43.6 117.69 43.12C119.86 44.63 122.41 43.3 124.69 44.06C119.01 45.66 113 44.21 107.34 45.99C105.8 46.47 104.18 46.72 102.6 47.07C100.34 47.96 98.0901 49.08 95.6101 47.76C94.6101 46.44 92.5901 47.64 91.6501 46.16L91.6401 46.17Z" fill="#DD6B2E"/>
<path d="M57.78 24.85C61.1 24.92 64.08 22.24 67.67 23.88C70.52 25.18 68.95 25.93 67.6 26.89C65.38 26.98 63.14 27.21 60.93 27.1C59.56 27.03 57.44 27.52 57.78 24.85Z" fill="#FAE226"/>
<path d="M53.7901 20.79C56.5101 20.67 59.3501 19.3 62.0401 21.83C59.5401 23.8 56.5201 22.83 53.7901 23.26C53.0701 22.81 51.6001 23.46 51.6001 22.13C51.6001 20.9 52.9601 21.1 53.7901 20.79Z" fill="#F6D528"/>
<path d="M183.36 68.63C178.15 67.8 173.07 66.6 168.82 62.96C173.65 64.62 178.48 66.27 183.31 67.93C183.35 68.16 183.37 68.39 183.36 68.63Z" fill="#DE732E"/>
<path d="M174.4 71.65C170.75 70.63 167.71 68.47 164.9 65.72C168.43 67.37 171.95 69.01 175.48 70.66C175.12 70.99 174.76 71.32 174.4 71.65Z" fill="#DB652E"/>
<path d="M95.6001 47.77C97.9301 47.54 100.26 47.31 102.59 47.08C100.19 50.77 96.8601 49.59 93.6001 48.78C94.2701 48.44 94.9301 48.11 95.6001 47.77Z" fill="#FDE923"/>
<path d="M53.7798 17.45C55.7698 18.23 55.1698 19.04 53.8198 19.87C51.9698 19.82 49.9898 20.52 47.7598 18.7C50.0098 17.85 51.7398 17.09 53.7898 17.46L53.7798 17.45Z" fill="#F6D129"/>
<path d="M214.16 26.05C212.15 27.8 209.47 26.8 206.66 28.44C208.4 25.68 210.61 25.89 212.42 25.25C213 25.52 213.58 25.78 214.15 26.05H214.16Z" fill="#E4922E"/>
<path d="M116.54 199.22C102.86 195.15 95.1698 178.42 100.78 165.7C102.06 162.81 102.56 160.7 100.78 157.6C97.2298 151.41 101.34 147.36 110.27 148.03C110.22 144.22 109.8 140.16 114.83 138.86C120.29 137.44 123.87 140.76 122.34 146.14C121.71 148.35 120.99 150.28 123.07 151.97C124.2 152.89 125.6 152.88 126.86 152.38C129.25 151.42 129.61 149.37 129.54 147.05C129.47 144.92 129.32 142.78 130.34 140.71C131.67 138 133.84 137.25 136.52 137.88C139 138.47 140.5 139.98 140.56 142.8C140.63 146.27 139.05 148.83 136.6 151C135.37 152.09 133.84 152.91 133.48 154.71C133.19 156.16 133.58 157.37 134.93 158.09C136.27 158.8 137.09 158.13 137.68 156.93C138.78 154.65 140.37 153.51 142.82 155.04C145.51 156.71 145.3 159.11 144.16 161.58C143.75 162.46 143.06 163.24 142.4 163.98C140.47 166.17 139.97 168.45 142.44 170.44C144.71 172.28 147.27 172.62 149.64 170.45C152.31 168.02 153.86 164.95 154.42 161.4C156.04 151.04 153.24 142.2 144.74 135.11C156.8 135.86 164.76 146.6 163.11 159.17C162.89 160.81 162.84 162.56 162.2 164.04C160.83 167.21 161.23 168.45 165.07 168.99C168.6 169.48 168.99 172.47 167.68 175.6C164.94 182.12 159.33 184.87 153.01 186.19C148.99 187.03 146.74 187.89 147.23 192.96C147.79 198.79 142.26 202.96 136.74 201.91C131.99 201.01 130.25 197.1 132.86 193C133.75 191.61 134.98 190.44 135.86 189.04C136.81 187.54 137.2 185.8 135.32 184.72C133.59 183.73 132.06 184.53 131.1 186.11C130.43 187.23 130 188.51 129.55 189.75C128.45 192.82 126.97 195.53 123.11 193.64C119.48 191.86 119.63 188.68 121.15 185.55C122.01 183.79 123.46 182.32 124.46 180.62C125.11 179.52 125.87 178.19 124.59 176.99C123.35 175.82 122.14 176.57 120.99 177.27C119.87 177.95 118.83 178.93 117.62 179.25C115.74 179.75 114.39 178.55 113.75 176.89C112.89 174.63 113.98 172.98 116.03 172.06C118.16 171.11 120.63 170.5 120.45 167.5C120.31 165.2 119.11 163.33 116.89 162.55C114.72 161.79 113.04 162.85 111.8 164.65C108.27 169.76 107.57 175.37 109.16 181.26C110.81 187.35 113.73 192.95 116.55 199.2L116.54 199.22Z" fill="#D5262C"/>
<path d="M136.35 281.07C142.76 280.26 140.88 285.35 141.26 287.99C141.79 291.65 138.34 291.27 136.01 291.18C130.6 290.97 133.57 286.6 132.89 284.16C132.04 281.07 134.18 280.58 136.34 281.07H136.35Z" fill="#F5DDD8"/>
<path d="M110.89 284.77C109.52 286.12 110.52 288.62 108.34 290.19C106.78 286.7 108.24 283.72 108.71 280.85C109.02 278.95 110.64 279.52 111.46 280.78C112.33 282.12 112.89 283.66 113.73 285.43C115.14 283.76 113.72 281.32 115.6 280.28C117.11 280.88 116.68 282.02 116.58 282.87C116.31 285.39 117.33 289.28 114.88 289.98C112.11 290.77 112.76 286.23 110.88 284.78L110.89 284.77Z" fill="#F4DCD7"/>
<path d="M157.69 281.5C155.77 282.76 153.87 279.52 152.51 282.45C154.41 284.2 158.6 282.35 158.99 286.28C159.18 288.23 157.76 289.34 156.06 289.74C153.87 290.25 151.72 290.25 150.87 287.49C152.49 285.77 154.88 289.78 156.46 286.55C154.54 284.9 150.3 286.67 150.19 282.52C150.15 281 151.03 280.1 152.4 279.58C154.7 278.71 156.58 278.9 157.68 281.5H157.69Z" fill="#F4DAD5"/>
<path d="M129.56 286.02C129.52 289.22 128.04 291.26 124.5 291.23C121.19 291.2 119.69 289.17 119.72 286.13C119.75 282.95 121.18 280.68 124.8 280.79C128.05 280.89 129.56 282.69 129.56 286.02Z" fill="#F5E1DD"/>
<path d="M146.65 290.7C144.41 288.15 144.63 285.1 144.48 282.14C144.44 281.45 144.7 280.84 145.52 280.81C146.3 280.79 146.62 281.39 146.75 282.03C147.33 284.88 147.69 287.74 146.66 290.69L146.65 290.7Z" fill="#F5E0DB"/>
<path d="M222.01 238.85C227.58 243.4 221.73 243.92 220.97 246.07C220.45 247.52 218.74 244.7 217.47 243.93C216.92 243.6 216.46 243.06 216.08 242.53C215.32 241.45 213.17 240.88 214.42 238.99C215.92 236.71 217.22 238.86 218.56 239.39C219.15 239.62 219.7 239.98 220.26 240.27C220.47 239.92 220.76 239.66 220.73 239.47C220.38 237.64 217.69 236.6 218.89 234.29C219.23 233.64 220.12 232.74 220.88 233.46C223.03 235.48 225 237.68 226.99 239.87C227.07 239.96 226.42 240.94 226.34 240.91C225.37 240.53 224.43 240.04 222.01 238.86V238.85Z" fill="#F5E0DB"/>
<path d="M236.41 222.88C235.72 220.94 233.03 220.8 233.36 218.1C236.81 218.6 238.52 221.45 240.74 223.34C242.03 224.44 240.92 225.42 239.46 225.41C237.84 225.4 236.22 225.2 234.57 225.08C234.32 226.6 235.63 226.69 236.21 227.35C236.84 228.06 238 228.66 236.92 229.72C236.13 230.49 235.45 229.68 234.86 229.13C234.74 229.02 234.6 228.91 234.5 228.79C232.91 226.83 228.83 225.75 229.64 223.36C230.66 220.37 234.04 223.87 236.42 222.88H236.41Z" fill="#F6E4DF"/>
<path d="M217.3 248.81C217.43 250.52 216.43 251.6 215.2 252.49C213.87 253.46 212.42 253.5 211.07 252.58C210.27 252.03 209.43 251.37 208.93 250.56C208.1 249.22 204.98 248.3 206.87 246.52C208.31 245.16 209.13 248.18 210.46 248.91C211.73 249.61 212.53 252.19 214.42 250.4C216.27 248.65 214.07 247.57 213.16 246.38C212.66 245.73 212.01 245.21 211.44 244.62C210.88 244.05 210 243.41 210.63 242.6C211.45 241.54 212.41 242.15 213.09 242.95C214.67 244.77 217.04 246.04 217.29 248.8L217.3 248.81Z" fill="#F6E4E0"/>
<path d="M227.76 225.62C228.26 228.54 225.39 229.2 225.43 231.25C227.92 232.05 228.07 228.73 230.05 229.15C230.25 229.38 230.58 229.58 230.61 229.82C230.85 231.64 226.83 232.43 228.86 234.07C230.9 235.72 231.56 231.47 234.03 231.62C234.1 234.73 231.25 237.25 229.71 237.2C226.68 237.11 224.03 234.02 223.02 231.46C222.13 229.2 225.28 227.41 227.76 225.62Z" fill="#F5E0DC"/>
<path d="M210.95 254.22C209.62 257.86 207.79 260.85 205.58 260.03C203.1 259.11 201.39 255.98 199.51 253.68C199.29 253.42 199.97 252.12 201.09 252.62C201.38 252.75 201.63 253.01 201.87 253.24C204.35 255.57 206.19 260.43 210.95 254.23V254.22Z" fill="#F6E3DE"/>
<path d="M66.6501 257.88C64.3701 257.52 65.7401 254.05 62.8401 254.38C62.1901 257.08 67.6501 259.63 63.2601 262.37C61.5201 263.46 60.0301 262.5 58.8301 261.38C57.4101 260.05 56.2301 258.47 57.8701 256.5C58.9001 256.75 59.3101 257.21 59.3601 257.93C59.4801 259.4 60.3501 261 61.6301 260.4C63.7201 259.41 61.4401 258.4 61.0001 257.45C60.3101 255.98 59.0901 254.61 60.7101 253.01C62.1201 251.61 63.6501 251.71 65.1601 252.76C67.0501 254.08 68.2001 255.64 66.6501 257.89V257.88Z" fill="#F3D7D1"/>
<path d="M37.25 238.5C36.34 237 36.95 236.24 37.76 235.57C38.82 234.69 38.31 233.83 37.72 233.01C36.92 231.91 36.16 232.29 35.27 233.01C34.61 233.55 33.68 234.62 32.95 233.08C32.49 232.09 33.46 231.65 34.05 231.13C34.92 230.37 35.84 229.66 36.71 228.89C38.53 227.27 40.06 224.99 42.39 228.65C44.12 231.37 45.66 233.47 41.49 235.17C39.8 235.86 39.33 238.14 37.26 238.5H37.25Z" fill="#F7E7E2"/>
<path d="M47.0601 250.5C50.4901 248.8 52.9301 247.55 55.4101 246.37C56.2901 245.95 57.2401 245.62 58.1301 246.46C59.0301 247.31 58.7501 248.18 58.2601 249.11C57.5001 250.56 56.8001 252.03 56.0801 253.49C55.5501 254.56 55.3401 256.34 53.9701 256.18C52.3301 255.99 53.5301 254.38 53.3001 253.45C52.6601 250.86 49.9401 251.74 47.0701 250.5H47.0601Z" fill="#F6E4E0"/>
<path d="M33.2798 221.67C31.9098 224.03 35.6298 224.57 34.6198 226.6C34.3098 226.72 33.9898 226.98 33.7398 226.92C32.1498 226.58 31.5698 223.19 30.0698 224.53C27.9998 226.38 32.3598 227.59 31.5898 230.24C28.7698 229.15 26.1798 226.36 26.8098 224.58C27.7698 221.92 30.9498 219.35 33.8298 219.01C35.4798 218.82 37.8198 221.83 37.9398 224.85C35.5398 224.71 35.4198 221.99 33.2898 221.65L33.2798 221.67Z" fill="#F5E1DC"/>
<path d="M25.4599 216.84C27.7199 217.5 30.2499 213.46 31.6399 216.43C32.2199 217.67 28.0599 218.26 26.0399 219.03C24.8799 219.47 23.3599 221.16 22.0899 219.44C20.9399 217.88 22.6899 216.78 23.2899 215.53C23.3599 215.38 23.4499 215.23 23.5799 215.13C25.2399 213.85 26.0399 209.7 27.7899 211.04C29.8999 212.66 25.7999 214.38 25.4599 216.83V216.84Z" fill="#F5E2DD"/>
<path d="M49.4102 237.21C51.2402 239.14 53.0802 241.07 54.9102 242.99C49.8102 240.59 48.5502 246.69 44.6802 247.27C44.6802 243.15 51.7002 242.38 49.4102 237.2V237.21Z" fill="#F5E2DE"/>
<path d="M40.7402 242.03C39.7902 241.79 39.4102 240.98 40.0602 240.3C42.0902 238.16 44.1502 236.01 46.8302 234.66C46.9902 234.58 47.8402 235.32 47.7902 235.43C46.5202 238.46 43.5802 239.83 41.3002 241.87C41.1902 241.97 41.0002 241.96 40.7402 242.03Z" fill="#F5DEDA"/>
<path d="M120.58 54.11C123.65 56.2 126.59 53.02 130.94 54.47C126.55 55.07 123.61 57.28 120.58 54.11Z" fill="#E6982C"/>
<path d="M162.83 70.52C161.31 69.86 159.81 67.97 158.98 66.65C160 67.68 161.69 69.37 162.83 70.52Z" fill="#E07730"/>
<path d="M124.87 289.2C122.68 289.27 122.12 287.86 122.09 286.3C122.06 284.64 122.29 282.83 124.61 282.8C126.47 282.78 127.28 284.04 127.36 285.67C127.45 287.48 126.72 288.88 124.87 289.2Z" fill="#D53032"/>
<path d="M38.4302 230.49C38.8902 230.15 39.3902 229.46 39.8802 229.47C41.2402 229.51 41.7302 230.64 41.8802 231.79C41.9702 232.46 41.4902 233.16 40.7302 233.01C39.5202 232.77 38.9002 231.79 38.4302 230.48V230.49Z" fill="#D74C47"/>
</svg>
